<svg xmlns="http://www.w3.org/2000/svg" width="1920" height="196.719" viewBox="0 0 1920 196.719">
  <defs>
    <style>
      .cls-1 {
        fill: #5762d5;
        fill-rule: evenodd;
      }
    </style>
  </defs>
  <path class="cls-1" d="M-42.077,41.917c454-101.553,1339.118,85.432,2024.968-38.627-9.12,23.406-10.67,60.975-.83,98.166,8.66,36.974,28.72,73.57,35.48,90.028-61.38,17.38-127.39,35.49-204.32,50.442-76.5,15.028-163.92,26.9-258.09,33.441-190.01,14.506-400.97,3.825-603.213-13.731-199.649-16.98-395.049-34.118-556.629-37.608-82.058-1.8-155.669-.852-223.414,2.228-67.388,2.564-128.909,7.255-178.536,1.012-18.17-50.044-27.7-88.245-32.05-122.944-4.261-33.807-3.894-60.71-3.365-62.406" transform="translate(0 -3.281)"/>
</svg>
