<svg xmlns="http://www.w3.org/2000/svg" width="1920" height="194.281" viewBox="0 0 1920 194.281">
  <defs>
    <style>
      .cls-1 {
        fill: #5762d5;
        fill-rule: evenodd;
      }
    </style>
  </defs>
  <path class="cls-1" d="M-42,41.912C26.724,28.458,110.277,19,187.13,13.672,264.893,8.284,335.957,7.022,400.9,8.592c128.769,3.213,238.858,17.373,379.573,29.3,139.24,12.018,307.061,21.94,489.831,20.66,91.38-.64,185.39-4.01,290.21-11.894C1666.45,38.7,1783.18,26.226,1945.75,5.71c-8.89,23.391,7.63,59.782,25.98,96.419,17.84,36.376,38.81,72.912,45.82,89.354-63.59,17.523-128.23,35.544-204.86,50.477-76.03,15-163.4,26.863-257.56,33.406-190.03,14.507-400.92,3.822-603.28-13.726-199.908-16.963-395.239-34.1-556.3-37.628-81.869-1.817-155.443-.868-223.291,2.219C104.771,228.8,43.142,233.5-6.56,227.261-24.425,177.2-33.67,138.978-38.328,104.3c-4.541-33.79-4.42-60.677-3.672-62.387" transform="translate(0 -5.719)"/>
</svg>
